<svg width="228" height="225" viewBox="0 0 228 225" fill="none" xmlns="http://www.w3.org/2000/svg">
<path d="M8.00001 38.9976L9.17127 164.288C9.28373 176.318 18.2852 186.406 30.2246 187.882L45.0191 189.712C57.2259 191.222 69.0289 195.063 79.7861 201.027L102.499 213.62C109.665 217.593 118.363 217.635 125.568 213.733L147.529 201.837C157.106 196.648 167.497 193.128 178.256 191.426L198.724 188.189C210.313 186.356 218.878 176.413 218.973 164.68L220 38.9976M34 163.998V8.9976C34 8.44531 34.4588 7.99737 35.011 8.00001C69.4522 8.1654 86.4352 16.808 108.208 30.7545L113.47 34.1253C113.631 34.2288 113.816 34.2802 114 34.2796C114.184 34.279 114.368 34.2266 114.528 34.1225L119.854 30.6713C141.686 16.3364 160.916 8.16766 192.992 8.00045C193.544 7.99757 194 8.44554 194 8.99783V163.998M170 129.998C158.175 131.597 148.391 134.149 139 138.998M170 101.998C158.175 103.597 148.391 106.149 139 110.998M170 73.9976C158.175 75.5969 148.391 78.1493 139 82.9976M170 45.9976C158.175 47.5969 148.391 50.1493 139 54.9976M58 129.998C69.8245 131.597 79.6087 134.149 89 138.998M58 101.998C69.8245 103.597 79.6087 106.149 89 110.998M58 73.9976C69.8245 75.5969 79.6087 78.1493 89 82.9976M58 45.9976C69.8245 47.5969 79.6087 50.1493 89 54.9976M114 182.998V37.9976M34 164.716C69.122 164.716 86.2232 173.39 108.208 187.473L113.47 190.843C113.631 190.947 113.816 190.998 114 190.998C114.184 190.997 114.368 190.945 114.528 190.841L119.854 187.389C125.198 183.88 130.386 180.741 135.646 177.998C147.006 172.072 158.696 167.996 173 166.041C179.407 165.166 186.339 164.716 194 164.716" stroke="black" stroke-width="16" stroke-linecap="round"/>
</svg>
